<svg xmlns="http://www.w3.org/2000/svg" viewBox="0 0 720 280" role="img" aria-label="AgentInspect package map">
  <rect width="720" height="280" fill="#f8fafc" rx="8"/>
  <g font-family="system-ui,sans-serif" font-size="12" fill="#0f172a">
    <rect x="280" y="20" width="160" height="40" rx="6" fill="#1e293b" stroke="#0f172a"/>
    <text x="360" y="45" text-anchor="middle" fill="#fff" font-weight="600">agent-inspect</text>
    <text x="360" y="72" text-anchor="middle" font-size="11" fill="#64748b">core + CLI</text>
    <line x1="360" y1="60" x2="120" y2="110" stroke="#94a3b8"/>
    <line x1="360" y1="60" x2="280" y2="110" stroke="#94a3b8"/>
    <line x1="360" y1="60" x2="440" y2="110" stroke="#94a3b8"/>
    <line x1="360" y1="60" x2="600" y2="110" stroke="#94a3b8"/>
    <rect x="40" y="110" width="160" height="36" rx="4" fill="#dbeafe" stroke="#3b82f6"/>
    <text x="120" y="133" text-anchor="middle">Framework adapters</text>
    <rect x="40" y="156" width="48" height="28" rx="4" fill="#fff" stroke="#cbd5e1"/><text x="64" y="174" text-anchor="middle" font-size="10">ai-sdk</text>
    <rect x="96" y="156" width="48" height="28" rx="4" fill="#fff" stroke="#cbd5e1"/><text x="120" y="174" text-anchor="middle" font-size="10">oai</text>
    <rect x="152" y="156" width="48" height="28" rx="4" fill="#fff" stroke="#cbd5e1"/><text x="176" y="174" text-anchor="middle" font-size="10">lc</text>
    <rect x="220" y="110" width="120" height="36" rx="4" fill="#dcfce7" stroke="#22c55e"/>
    <text x="280" y="133" text-anchor="middle">Quality</text>
    <rect x="220" y="156" width="56" height="28" rx="4" fill="#fff" stroke="#cbd5e1"/><text x="248" y="174" text-anchor="middle" font-size="10">eval</text>
    <rect x="284" y="156" width="56" height="28" rx="4" fill="#fff" stroke="#cbd5e1"/><text x="312" y="174" text-anchor="middle" font-size="10">vitest</text>
    <rect x="380" y="110" width="120" height="36" rx="4" fill="#fef3c7" stroke="#f59e0b"/>
    <text x="440" y="133" text-anchor="middle">Safety</text>
    <rect x="380" y="156" width="56" height="28" rx="4" fill="#fff" stroke="#cbd5e1"/><text x="408" y="174" text-anchor="middle" font-size="10">redact</text>
    <rect x="444" y="156" width="56" height="28" rx="4" fill="#fff" stroke="#cbd5e1"/><text x="472" y="174" text-anchor="middle" font-size="10">guard</text>
    <rect x="520" y="110" width="160" height="36" rx="4" fill="#f3e8ff" stroke="#a855f7"/>
    <text x="600" y="133" text-anchor="middle">Inspect UX</text>
    <rect x="520" y="156" width="48" height="28" rx="4" fill="#fff" stroke="#cbd5e1"/><text x="544" y="174" text-anchor="middle" font-size="10">viewer</text>
    <rect x="576" y="156" width="48" height="28" rx="4" fill="#fff" stroke="#cbd5e1"/><text x="600" y="174" text-anchor="middle" font-size="10">tui</text>
    <rect x="632" y="156" width="48" height="28" rx="4" fill="#fff" stroke="#cbd5e1"/><text x="656" y="174" text-anchor="middle" font-size="10">mcp</text>
    <text x="360" y="250" text-anchor="middle" font-size="11" fill="#64748b">All packages: local-first · no default upload</text>
  </g>
</svg>
